<svg xmlns="http://www.w3.org/2000/svg" width="282" height="104" viewBox="0 0 282 104">
  <g id="Group_65" data-name="Group 65" transform="translate(-499 -174)">
    <g id="Group_1" data-name="Group 1" transform="translate(479 187)">
      <path id="Polygon_1" data-name="Polygon 1" d="M12,0,24,47H0Z" transform="translate(20 20)" fill="#464646"/>
      <path id="Polygon_2" data-name="Polygon 2" d="M12,0,24,47H0Z" transform="translate(53 20)" fill="#464646"/>
      <path id="Polygon_3" data-name="Polygon 3" d="M7.5,0,15,31H0Z" transform="translate(56 67) rotate(180)" fill="#464646"/>
    </g>
    <g id="Group_9" data-name="Group 9" transform="translate(458 183)">
      <path id="Exclusion_1" data-name="Exclusion 1" d="M682.044,306.113a11.25,11.25,0,0,1-7.659-3.068A10.837,10.837,0,0,1,671,295.094V268.906a10.837,10.837,0,0,1,3.384-7.952,11.25,11.25,0,0,1,7.659-3.068,10.869,10.869,0,0,1,6.526,2.2l17.582,13.094a11,11,0,0,1,0,17.645L688.57,303.916A10.869,10.869,0,0,1,682.044,306.113Zm6.994-33.986h0A9.048,9.048,0,0,0,680,281.144v1.712a9.049,9.049,0,0,0,9.037,9.017,8.881,8.881,0,0,0,5.408-1.851l1.127-.856a9,9,0,0,0,0-14.331l-1.127-.856a8.881,8.881,0,0,0-5.407-1.851Z" transform="translate(-547.5 -230.5)" fill="#464646"/>
      <path id="Exclusion_2" data-name="Exclusion 2" d="M678,295a7.008,7.008,0,0,1-7-7V254a7,7,0,0,1,12.822-3.885A19.274,19.274,0,0,1,694.5,247a18.954,18.954,0,0,1,12.374,4.393,13.538,13.538,0,0,1,0,21.214A18.954,18.954,0,0,1,694.5,277a19.6,19.6,0,0,1-9.5-2.4V288A7.008,7.008,0,0,1,678,295Zm17-42a8,8,0,1,0,8,8A8.009,8.009,0,0,0,695,253Z" transform="translate(-499 -220)" fill="#464646"/>
      <path id="Polygon_6" data-name="Polygon 6" d="M5.035,41.706c.7-5.879,9.23-5.879,9.93,0l4.369,36.7A5,5,0,0,1,14.369,84H5.631A5,5,0,0,1,.666,78.409Z" transform="translate(217 -9)" fill="#464646"/>
      <path id="Polygon_7" data-name="Polygon 7" d="M5.035,41.706c.7-5.879,9.23-5.879,9.93,0l4.369,36.7A5,5,0,0,1,14.369,84H5.631A5,5,0,0,1,.666,78.409Z" transform="translate(250 -9)" fill="#464646"/>
      <path id="Polygon_8" data-name="Polygon 8" d="M3.029,32.9a4,4,0,0,1,7.942,0l2.488,20.617A4,4,0,0,1,9.488,58H4.512A4,4,0,0,1,.541,53.521Z" transform="translate(251 95) rotate(180)" fill="#464646"/>
      <path id="Union_1" data-name="Union 1" d="M-635,295a8,8,0,0,1-8-8V255a8,8,0,0,1,8-8,8,8,0,0,1,8,8v24h16a8,8,0,0,1,8,8,8,8,0,0,1-8,8Z" transform="translate(926 -219)" fill="#464646"/>
    </g>
  </g>
</svg>
